<svg version="1.1" id="Layer_1" xmlns="http://www.w3.org/2000/svg" xmlns:xlink="http://www.w3.org/1999/xlink" x="0px" y="0px"
	 width="100%" viewBox="0 0 1024 1024" enable-background="new 0 0 1024 1024" xml:space="preserve">
<path fill="#000000" opacity="1.000000" stroke="none" 
	d="
M489.892395,333.733551 
	C565.092529,328.128876 631.050964,347.757050 685.107117,402.398529 
	C686.705505,398.635742 686.675232,395.363434 686.782898,392.116455 
	C687.407837,373.268585 690.544067,354.728760 693.677917,336.191345 
	C694.778809,329.679077 697.781006,323.895050 700.997742,318.238800 
	C702.605103,315.412384 704.758423,312.814667 708.352295,313.041565 
	C711.901001,313.265625 713.914612,315.967529 715.121948,319.001770 
	C719.626038,330.321442 722.134583,342.228516 725.370728,353.931335 
	C731.088257,374.606873 733.171265,395.798553 734.776794,417.019836 
	C735.919495,432.123596 735.537598,447.334290 733.365662,462.378174 
	C732.624512,467.511841 732.994446,472.136749 735.068542,476.913696 
	C746.732239,503.777313 752.066528,532.061096 754.444275,561.138916 
	C758.829407,614.763367 744.362305,663.580017 717.758118,709.442688 
	C716.100952,712.299377 715.999817,715.098999 716.383911,718.084534 
	C718.675964,735.900452 722.263367,753.551208 723.672607,771.471069 
	C724.611328,783.408081 725.628967,795.385498 724.947205,807.384216 
	C724.464783,815.874634 719.324890,822.609802 712.134827,824.729370 
	C705.325928,826.736572 698.086670,824.008423 692.764282,817.459534 
	C689.873291,813.902222 688.036377,809.897095 686.998291,805.413208 
	C683.827820,791.718079 682.165771,777.895081 682.819458,763.818298 
	C682.978149,760.401123 682.843079,756.970276 682.843079,752.155823 
	C674.773804,760.418152 667.195740,767.121338 659.073608,773.099609 
	C628.104004,795.894226 593.758057,811.330811 555.653625,816.809937 
	C493.383972,825.763794 435.932251,812.740662 383.812927,776.890564 
	C356.766937,758.287109 334.000458,735.493652 317.121246,707.506775 
	C298.500244,676.631958 284.386932,643.913452 282.546417,606.986694 
	C280.941223,574.781494 280.771179,542.761353 288.633636,511.187439 
	C298.095428,473.191162 315.378082,439.274780 340.898376,409.506714 
	C360.275055,386.904816 383.366516,369.610229 410.280853,356.677216 
	C435.528564,344.545105 461.690552,336.692291 489.892395,333.733551 
M385.637634,692.862061 
	C426.885986,733.036865 476.044128,751.336243 533.643738,746.736877 
	C556.524170,744.909912 578.090881,739.173218 598.502625,728.439453 
	C625.019958,714.495117 646.241211,694.829590 664.128784,671.065186 
	C677.794006,652.910217 686.736328,632.738220 691.921631,610.744080 
	C696.158447,592.773315 693.886169,574.666443 693.539612,556.558655 
	C693.408630,549.710388 688.932678,542.450928 694.502502,535.790283 
	C694.777893,535.460876 694.320557,534.530884 694.225220,533.877502 
	C692.921143,524.941528 690.243469,516.354431 687.244385,507.892792 
	C676.709045,478.169037 659.383789,453.049042 635.143066,432.884460 
	C603.565125,406.616486 567.880554,390.022308 526.255920,388.233246 
	C497.886047,387.013855 470.448151,391.222595 444.598999,403.550964 
	C417.831238,416.317352 393.555115,432.639557 375.156281,456.213959 
	C344.371918,495.657867 331.379974,540.578247 337.485535,590.322632 
	C342.270111,629.304688 356.156921,664.466492 385.637634,692.862061 
M335.450012,425.930664 
	C312.450073,460.007599 295.430664,496.446503 289.943237,537.729248 
	C287.020813,559.715088 284.200897,581.572083 287.102386,603.814331 
	C292.032104,641.604553 305.600006,676.306519 324.787354,708.864868 
	C340.863190,736.143372 364.488007,756.521179 390.245361,773.894165 
	C420.831573,794.524170 454.569031,807.869568 491.853790,811.355774 
	C527.656921,814.703491 562.690063,812.362549 596.647156,799.787720 
	C627.758301,788.266846 656.385620,772.746399 679.415100,748.200317 
	C682.219910,745.210876 683.356750,742.021545 683.803894,737.997986 
	C685.060791,726.688049 684.470947,715.317871 685.819763,703.973816 
	C688.117249,684.651672 689.219055,665.187012 690.800293,645.780334 
	C691.120850,641.846069 691.339905,637.903564 691.605774,633.964844 
	C653.089172,727.309326 561.966248,772.284912 473.301361,748.772949 
	C383.912689,725.069031 317.025421,649.820374 333.666565,539.468506 
	C345.148926,463.326080 403.783813,395.995148 493.435150,385.481293 
	C539.559143,380.072052 583.582764,389.077057 622.196960,416.539581 
	C672.178650,452.086639 699.907349,500.409912 703.280396,562.353943 
	C706.152466,556.975647 710.582947,553.462891 714.940857,549.884338 
	C718.560425,546.912048 721.136536,543.193176 721.571411,538.518860 
	C722.218689,531.562378 723.264343,524.488220 722.636597,517.601196 
	C721.454468,504.634094 723.285767,492.068237 725.476440,479.426880 
	C725.996643,476.424713 727.343628,473.446991 725.868225,470.154541 
	C717.649353,451.814270 707.908997,434.436890 694.346375,419.437408 
	C693.127075,418.089020 692.214233,416.129822 690.070251,415.854004 
	C688.872375,422.357269 690.194214,428.927307 688.225769,435.767365 
	C685.449097,433.442352 685.908569,431.312134 685.876648,429.404266 
	C685.795776,424.573547 685.764526,419.735931 685.938416,414.909180 
	C686.047729,411.876465 685.162598,409.530151 683.015137,407.310303 
	C667.859253,391.643921 651.140869,377.863312 632.038391,367.391083 
	C595.470215,347.344025 556.005676,338.654541 514.440857,339.340942 
	C506.809845,339.466949 499.185608,340.525757 491.575867,341.322296 
	C472.012604,343.370026 452.518646,345.971527 434.110504,353.360718 
	C395.246124,368.961182 361.286499,391.349915 335.450012,425.930664 
M708.177490,563.864380 
	C705.803894,569.498718 705.383667,575.461365 705.212097,581.467346 
	C704.325623,612.500244 707.190308,643.327454 710.456299,674.120544 
	C711.425110,683.254578 713.051453,692.318848 714.472595,702.075012 
	C758.152954,638.562866 754.739380,531.044739 730.253906,482.580627 
	C729.867126,485.007172 729.518921,487.129852 729.191528,489.255737 
	C727.174927,502.348267 728.379395,515.532410 728.156555,528.672363 
	C727.957397,540.418213 724.199158,550.147278 714.128479,556.909119 
	C711.761780,558.498169 709.860229,560.624451 708.177490,563.864380 
M711.100403,433.432434 
	C717.433716,441.756622 721.995056,451.251495 728.569336,461.216644 
	C729.097046,453.293060 729.762390,447.010864 729.883789,440.718201 
	C730.147156,427.071075 729.412292,413.472717 727.801392,399.894958 
	C724.987854,376.181793 719.577393,353.095764 711.855469,330.531708 
	C711.135803,328.428680 710.780884,325.524933 707.860718,325.410492 
	C705.229675,325.307343 704.005188,327.777832 702.729797,329.673187 
	C697.319580,337.713104 696.291260,347.066620 695.301697,356.304504 
	C693.637451,371.840973 692.563293,387.441345 690.835754,402.969788 
	C690.461853,406.330872 691.040100,408.710510 693.190369,411.077332 
	C699.460144,417.978882 705.356079,425.188263 711.100403,433.432434 
M708.037781,723.729919 
	C702.987366,730.347900 697.862427,736.903870 692.025757,742.863586 
	C690.592957,744.326538 689.511963,745.904480 689.514404,748.100891 
	C689.535217,767.066040 689.226013,786.053833 692.416382,804.846497 
	C693.644409,812.080078 701.627197,818.807739 707.783875,818.169556 
	C715.437744,817.376221 718.672119,812.847656 718.924561,803.269775 
	C719.457031,783.068726 717.914246,763.032410 714.614380,743.112366 
	C713.407288,735.825745 712.262756,728.528687 710.973877,720.516296 
	C709.765808,721.812561 709.109070,722.517212 708.037781,723.729919 
M700.955505,635.254822 
	C700.809692,631.427185 700.752258,627.593506 700.492493,623.773560 
	C700.245483,620.140808 699.787170,616.522400 699.421753,612.897644 
	C697.073364,654.036804 690.781555,694.790833 689.904968,737.014893 
	C693.084351,733.515015 695.519409,731.021240 697.743652,728.351868 
	C705.383301,719.183350 711.401245,710.322510 708.209473,696.616638 
	C703.613708,676.882263 703.346069,656.354431 700.955505,635.254822 
z"/>
<path fill="#000000" opacity="1.000000" stroke="none" 
	d="
M789.190063,825.966431 
	C784.978882,832.888794 778.319702,832.256409 772.068542,832.092651 
	C766.919067,831.957642 764.852051,827.767090 763.285706,823.635681 
	C757.758789,809.057861 756.261902,793.847107 757.117188,778.437378 
	C758.020752,762.157166 759.918640,745.926575 760.619019,729.641541 
	C762.988464,674.554810 764.549866,619.442017 763.713501,564.295166 
	C763.399780,543.613586 761.428894,523.039856 756.561707,502.905182 
	C753.789429,491.436493 750.114502,480.173676 746.541443,468.914795 
	C743.706665,459.982452 743.414001,450.855591 744.013672,441.706421 
	C746.018188,411.121399 747.341248,380.523285 746.861755,349.864349 
	C746.786377,345.041809 747.003845,340.226746 745.933655,335.441223 
	C745.398438,333.048187 745.807190,330.454468 748.986206,330.225464 
	C751.990845,330.009094 753.033081,332.168701 752.995789,334.802795 
	C752.780945,349.983124 754.885010,365.040894 755.318359,380.192993 
	C755.707336,393.791138 758.607056,407.190033 758.511047,420.854950 
	C758.928589,420.855408 759.346130,420.855865 759.763672,420.856323 
	C759.763672,418.858582 759.786133,416.860596 759.760376,414.863159 
	C759.422913,388.712616 759.064392,362.562347 758.748474,336.411530 
	C758.687439,331.357788 760.709534,329.049988 763.989990,330.307312 
	C766.801819,331.385010 767.131409,333.841919 767.225708,336.474487 
	C767.869629,354.448853 768.265991,372.439240 769.339355,390.388733 
	C770.186279,404.550964 769.838135,418.695892 769.947998,432.849823 
	C769.974670,436.289673 770.026978,439.736969 772.727112,442.414856 
	C775.342712,441.208649 774.662170,439.122437 774.695923,437.454590 
	C775.221558,411.478058 776.255554,385.504517 775.556213,359.517303 
	C775.350342,351.865570 774.757141,344.223999 774.319397,336.578979 
	C774.178528,334.118896 773.346252,331.056305 777.013123,330.763153 
	C780.254944,330.503998 781.745300,333.111511 782.034302,335.933289 
	C782.559875,341.062927 782.987244,346.230530 782.982666,351.381866 
	C782.959290,377.876404 785.459595,404.259460 786.346375,430.712280 
	C786.452087,433.866486 786.842224,437.007782 788.777771,440.042542 
	C790.843689,438.716248 790.795471,436.684875 790.823547,434.818878 
	C791.276428,404.685516 792.241333,374.548187 790.230225,344.430115 
	C790.030518,341.439758 789.944092,338.439636 789.889282,335.442505 
	C789.847778,333.174164 790.040955,330.928314 793.092224,330.803101 
	C795.879578,330.688690 797.523315,332.160583 797.878662,334.855286 
	C799.052551,343.756531 800.379150,352.647156 801.202026,361.582825 
	C802.239685,372.850525 802.087341,384.301880 803.662659,395.424408 
	C806.036438,412.184631 805.999817,428.914948 805.959290,445.689178 
	C805.918274,462.662018 804.551941,479.536621 802.578735,496.437195 
	C800.666626,512.814880 799.177124,529.218323 795.191589,545.236389 
	C792.100647,557.658936 787.317749,569.594482 784.379761,582.097717 
	C781.386658,594.835144 780.344727,607.535278 780.705322,620.675354 
	C781.479370,648.881714 787.010803,676.548462 789.036194,704.576538 
	C791.278442,735.604858 795.519836,766.511780 794.368958,797.763977 
	C794.014526,807.389893 792.484009,816.593994 789.190063,825.966431 
M768.164551,682.500000 
	C768.093262,705.820007 766.994019,729.106018 765.313416,752.352661 
	C763.772827,773.662109 762.834900,794.917542 766.857971,816.055054 
	C768.414795,824.234741 768.957336,824.484375 777.062561,823.707397 
	C778.055542,823.612183 779.035034,823.313782 780.026672,823.279968 
	C783.647522,823.156311 785.315552,821.220276 785.860352,817.727478 
	C786.962708,810.659851 788.374756,803.652588 788.749756,796.471924 
	C790.023010,772.093079 787.755127,747.906555 784.984619,723.746033 
	C781.705811,695.153198 778.035278,666.599670 775.262817,637.958496 
	C774.582825,630.933472 771.587036,623.997253 773.491882,616.769409 
	C774.478027,613.027527 774.795593,609.253235 774.781372,605.399963 
	C774.736572,593.282959 777.848816,581.774048 780.953918,570.148499 
	C783.969788,558.856995 790.075500,548.706604 790.358337,536.259399 
	C790.673218,522.397034 794.073547,508.614136 795.986450,494.776703 
	C799.366699,470.323944 800.485168,445.747955 799.673218,421.081696 
	C799.625610,419.635162 799.903137,418.062408 798.436157,416.607178 
	C796.970764,419.868500 797.242249,423.173981 797.149536,426.401062 
	C796.981567,432.249634 796.371765,438.050934 794.756836,443.669037 
	C794.005859,446.281464 792.328064,448.658997 789.322205,448.913300 
	C786.656311,449.138794 785.273376,447.008850 784.060791,444.936584 
	C783.430054,443.858582 783.453430,442.255829 781.523621,441.891083 
	C779.363647,445.103943 778.564697,450.218323 773.369934,450.039673 
	C768.191345,449.861633 768.160400,443.641876 764.622742,441.382935 
	C759.451050,446.231934 757.163574,445.498322 755.563660,438.609741 
	C755.188782,436.995758 755.061768,435.322235 754.852112,433.672150 
	C754.038574,427.267761 753.237854,420.861755 752.432312,414.456329 
	C751.371338,416.842163 751.442566,419.182220 751.040466,421.437836 
	C747.665649,440.369904 749.648071,458.860962 755.045227,477.188812 
	C758.380371,488.514526 761.799316,499.873627 764.102966,511.432526 
	C768.415161,533.070190 768.178589,555.142273 768.946411,577.086975 
	C770.164551,611.897461 767.197937,646.685547 768.164551,682.500000 
z"/>
<path fill="#000000" opacity="1.000000" stroke="none" 
	d="
M462.685547,644.865051 
	C468.290863,640.624329 471.939575,635.338135 474.661865,629.350891 
	C475.562103,627.370972 476.724365,624.989624 474.704224,623.382568 
	C472.570099,621.684875 470.605927,623.774963 468.993835,625.030579 
	C467.038483,626.553406 465.427917,628.512329 463.609833,630.220459 
	C462.462402,631.298523 461.058167,632.098267 459.599945,630.957642 
	C458.184174,629.850342 458.593445,628.288818 459.152649,626.837280 
	C461.332214,621.179871 471.980499,614.779541 477.826874,615.607727 
	C483.383972,616.394897 486.437531,621.217102 484.902466,627.732361 
	C483.995026,631.583435 483.459595,634.341370 486.988556,637.718384 
	C490.819275,641.384033 488.510437,646.860779 487.719757,651.545044 
	C487.366943,653.635559 486.415771,655.625122 485.233307,659.166687 
	C491.663879,655.457642 498.560516,656.273376 503.210541,651.191040 
	C505.162445,649.057739 507.423859,647.472473 510.210541,646.584167 
	C513.011169,645.691406 515.804993,645.069153 518.249268,647.214233 
	C520.848999,649.495605 520.675415,652.604858 519.975281,655.571899 
	C519.367004,658.149414 518.072693,660.568665 517.503601,663.150879 
	C516.689819,666.843201 518.201477,668.091675 521.870178,667.038696 
	C525.757263,665.922974 528.442871,664.263306 528.943054,659.368469 
	C529.774536,651.231995 537.114807,644.624084 545.334656,643.721619 
	C548.232544,643.403442 549.625549,641.782104 550.980042,639.497864 
	C554.885010,632.912476 558.940430,626.414429 563.043823,619.950012 
	C564.062195,618.345764 565.233521,616.040710 567.661621,617.341858 
	C569.716431,618.442993 569.531799,620.791138 568.987915,622.747009 
	C567.813904,626.968201 565.538147,630.637207 562.960144,634.159058 
	C557.662537,641.396179 554.172424,649.437500 552.993530,658.354004 
	C552.562988,661.610352 552.025696,665.472473 556.535034,666.435608 
	C560.402893,667.261780 564.834229,663.096191 565.229370,659.153137 
	C565.542786,656.025146 566.131775,652.898621 566.909912,649.851013 
	C567.640137,646.991211 569.538757,644.783447 572.207886,643.532166 
	C575.033630,642.207520 578.183960,641.859436 580.761841,643.807373 
	C583.485962,645.865845 582.762390,649.093811 581.682373,651.624634 
	C580.059265,655.428223 577.642029,658.884338 575.820251,662.614136 
	C573.997742,666.345398 575.104187,667.903381 579.251770,667.735962 
	C582.638489,667.599304 585.722961,666.323364 588.775696,664.957153 
	C590.238525,664.302490 591.583435,663.014771 593.766296,663.982117 
	C594.823486,668.268127 591.217957,669.458130 588.544983,670.875549 
	C580.420166,675.183899 573.177979,674.094849 566.803650,667.925354 
	C553.344543,673.273621 550.262878,672.481506 545.566162,661.904846 
	C543.883667,663.689453 542.397217,665.353516 540.817322,666.923462 
	C537.756958,669.964600 534.210815,671.564941 530.012085,669.549927 
	C528.051392,668.609070 526.790588,669.676758 525.430603,670.470032 
	C523.201050,671.770386 520.615051,673.179626 518.368530,672.128662 
	C513.652405,669.922424 509.510468,670.723816 504.722107,672.097046 
	C498.040619,674.013245 496.202393,671.742737 495.371735,662.019226 
	C489.005096,665.247742 481.890167,666.050049 477.754059,673.020752 
	C473.775299,679.726379 467.103058,683.896545 460.658081,688.079529 
	C458.902405,689.218933 457.230286,689.156921 455.680054,687.645020 
	C453.622406,685.638367 452.459747,683.377930 453.701996,680.486511 
	C456.142334,674.806213 460.454620,671.144165 466.143616,668.927368 
	C474.787720,665.559143 481.096466,653.537659 479.108917,643.877991 
	C475.404114,644.248047 473.703918,647.389893 471.328339,649.497803 
	C470.085663,650.600464 469.042969,651.927673 467.806610,653.038391 
	C465.999146,654.662231 464.211853,657.135315 461.436432,655.027771 
	C458.996887,653.175293 459.683289,650.585693 460.750671,648.192871 
	C461.221588,647.137207 461.877869,646.164246 462.685547,644.865051 
M502.888458,666.584229 
	C508.337677,666.078918 511.947113,660.900940 511.898560,653.658752 
	C505.680176,653.669922 500.565155,660.355469 502.888458,666.584229 
M545.293884,649.457153 
	C538.665039,650.408936 533.496155,657.371033 535.351624,663.834656 
	C539.960266,659.730896 543.824036,655.582642 545.293884,649.457153 
z"/>
<path fill="#000000" opacity="1.000000" stroke="none" 
	d="
M564.742188,514.749390 
	C564.451660,516.803528 564.089355,518.470154 564.189697,520.108398 
	C564.433411,524.086975 566.445557,525.414490 570.199097,524.181091 
	C572.094482,523.558289 573.906982,522.686523 575.794434,522.035706 
	C579.095215,520.897705 580.760559,519.488342 580.252441,515.176697 
	C579.681580,510.331818 580.737122,505.158051 584.298157,501.165558 
	C587.156250,497.961212 592.261719,496.906677 595.192505,499.069550 
	C598.846680,501.766327 597.525452,505.369263 596.078430,508.540192 
	C594.495483,512.008850 592.222900,515.157043 590.529236,518.582520 
	C588.796387,522.087341 590.290222,524.109375 594.183716,523.504089 
	C597.973694,522.914734 601.602844,521.655273 605.030640,519.859436 
	C606.172363,519.261292 607.554382,518.355469 608.614502,519.816650 
	C609.742981,521.372009 608.632080,522.634033 607.597168,523.757446 
	C602.504333,529.286011 591.134949,530.938049 585.031372,526.524231 
	C582.510315,524.701050 580.705872,524.687073 578.367065,526.165527 
	C576.961426,527.054199 575.500671,527.865540 574.019897,528.624023 
	C564.945679,533.272156 559.918091,531.451294 555.960693,521.814514 
	C548.021301,527.355469 539.128296,526.180481 530.292358,525.443970 
	C528.919739,525.329529 527.668457,525.596558 526.488953,526.355835 
	C523.095886,528.539856 519.561218,528.707764 516.111450,526.624146 
	C513.955994,525.322327 512.214844,525.868225 510.064850,526.762756 
	C506.380920,528.295471 501.884186,530.101013 498.902557,526.489685 
	C495.777374,522.704407 496.859436,517.811646 499.343170,513.849060 
	C502.338287,509.070557 505.533051,504.215515 511.319214,502.286743 
	C514.178894,501.333496 517.368408,500.490417 519.856323,502.817383 
	C522.394287,505.191162 522.490112,508.421661 521.448853,511.646179 
	C520.733276,513.862000 519.907776,516.044556 519.258240,518.278870 
	C518.763733,519.979858 517.767700,522.101135 520.605896,522.647705 
	C522.572021,523.026245 524.762146,523.021851 525.688538,520.635315 
	C528.689758,512.904053 535.153442,506.552887 534.853699,497.486053 
	C534.807617,496.090973 535.699097,494.938507 537.301880,494.796448 
	C539.467529,494.604462 540.708923,495.790405 541.412537,497.704803 
	C543.726562,504.001129 544.347534,510.644257 545.359924,517.202759 
	C545.582764,518.646179 545.037048,520.432190 546.786072,521.124084 
	C548.391174,521.759033 549.520935,520.353149 550.808350,519.644775 
	C559.216858,515.017822 556.904785,506.464539 558.150574,499.284241 
	C558.500122,497.269745 556.255371,497.474365 554.800049,497.318756 
	C552.605408,497.084198 550.182190,497.928558 547.966919,496.042389 
	C549.650208,492.811768 552.497375,492.410217 555.246094,492.718628 
	C560.138916,493.267639 562.621521,490.811005 564.321167,486.685760 
	C565.523499,483.767365 566.991760,480.951935 568.453979,478.149292 
	C569.719238,475.724121 571.577576,473.826416 574.153015,472.766235 
	C575.205261,472.333008 576.334290,471.618134 577.467712,472.404144 
	C578.830322,473.349152 578.530334,474.818634 578.111572,476.047699 
	C576.772888,479.977356 575.587646,484.003693 573.773376,487.714142 
	C572.036682,491.266174 572.828552,492.604034 576.622314,492.742645 
	C578.233765,492.801514 580.035706,492.740356 580.942200,494.844208 
	C579.487671,497.104980 577.093140,496.257874 575.131470,496.290253 
	C571.279907,496.353821 568.900269,497.703491 568.112976,501.789642 
	C567.296692,506.026367 565.979126,510.166534 564.742188,514.749390 
M510.077698,519.566345 
	C511.565643,516.075806 514.360107,512.993103 513.698547,508.391998 
	C508.859344,509.107361 506.250366,512.113464 504.285675,515.812439 
	C503.213226,517.831665 501.918640,520.395813 504.213928,522.073792 
	C506.260315,523.569702 508.214386,521.899963 510.077698,519.566345 
M539.036255,512.149719 
	C538.797058,511.583405 538.557800,511.017090 537.994507,509.683502 
	C536.822876,511.962494 535.929016,513.637024 535.096313,515.341431 
	C534.443115,516.678345 534.339722,518.018188 536.094971,518.486755 
	C537.680176,518.909912 539.198181,518.464294 539.499329,516.631836 
	C539.704102,515.386230 539.365662,514.051453 539.036255,512.149719 
z"/>
<path fill="#000000" opacity="1.000000" stroke="none" 
	d="
M438.989075,517.456055 
	C442.691620,514.444275 446.001404,516.901489 448.938354,518.099487 
	C457.488800,521.587280 459.527435,520.599365 465.458435,511.714355 
	C469.443268,505.744873 471.562042,498.797485 474.232025,492.161774 
	C474.744446,490.888275 475.197571,489.429230 474.226379,488.352509 
	C471.221039,485.020905 467.124237,486.314331 463.404755,486.101624 
	C461.096405,485.969635 459.072876,486.451202 458.335022,489.102997 
	C458.068298,490.061523 457.674072,490.991455 457.267395,491.902954 
	C455.948486,494.858948 454.463806,498.306549 450.570038,497.261353 
	C446.720276,496.227997 443.230042,493.941284 442.641815,489.300690 
	C440.838959,475.077759 441.608063,478.643829 453.575592,478.659790 
	C464.694794,478.674652 475.271851,482.965485 486.446716,481.807495 
	C490.620972,481.374939 494.668701,480.711945 498.614166,479.275024 
	C501.120361,478.362274 503.947815,478.091278 504.928131,481.161865 
	C505.946686,484.352203 503.278015,485.688873 500.750275,486.172882 
	C496.185669,487.046906 491.558960,487.643219 486.935028,488.139740 
	C484.910828,488.357117 483.625214,488.941833 482.777313,490.967041 
	C479.187653,499.540680 475.421906,508.040497 471.764069,516.585938 
	C471.603943,516.960022 471.871948,517.517456 471.938782,517.977661 
	C474.114441,519.478943 475.367615,517.632080 476.830475,516.761230 
	C478.271576,515.903381 479.814545,514.622681 481.264435,516.306519 
	C482.833588,518.128845 481.523224,519.822754 480.188171,521.096069 
	C476.291382,524.812622 471.416351,526.580139 466.196930,527.056152 
	C461.563354,527.478638 456.871124,527.440491 452.210693,527.338074 
	C446.712189,527.217285 439.578430,521.977661 438.989075,517.456055 
z"/>
<path fill="#000000" opacity="1.000000" stroke="none" 
	d="
M532.700317,556.676880 
	C533.980652,560.891357 531.188477,563.957153 530.430542,567.890015 
	C531.611328,567.634216 532.381226,567.485229 533.141968,567.299011 
	C535.041870,566.834045 537.317322,565.715332 538.208435,568.438354 
	C538.966919,570.756042 537.109192,572.638672 535.264893,573.005859 
	C527.238098,574.603699 524.110107,581.274170 519.970093,586.976929 
	C516.634888,591.571045 513.093079,596.012024 508.191223,599.066833 
	C502.601288,602.550415 497.982422,601.318909 494.984589,595.444458 
	C492.813019,591.189209 491.954987,586.715881 493.331390,581.920105 
	C494.338898,578.409729 495.073853,574.813049 495.776703,571.224731 
	C497.625702,561.784546 503.375824,555.383362 511.822662,551.520813 
	C515.642517,549.773987 519.989807,548.503906 524.147095,548.350281 
	C528.912170,548.174194 531.101746,552.199524 532.700317,556.676880 
M512.659424,560.456177 
	C511.725922,559.373535 510.939056,560.095764 510.106232,560.637756 
	C503.387848,565.010010 496.385040,583.714417 498.615875,591.440735 
	C499.482910,594.443604 501.448944,595.696716 504.228668,593.943970 
	C510.959595,589.699585 516.009338,583.845154 519.675171,576.801636 
	C520.306091,575.589294 520.696472,574.169128 519.489258,573.124207 
	C515.768677,569.903870 514.777222,565.254395 512.659424,560.456177 
M525.995483,561.471741 
	C526.501282,559.624939 527.737000,557.202332 524.988708,556.548645 
	C522.596619,555.979675 521.033997,558.220642 520.522888,560.321838 
	C519.916382,562.815308 520.022156,565.447083 522.417053,567.319885 
	C524.522095,565.955383 524.902283,563.918701 525.995483,561.471741 
z"/>
<path fill="#000000" opacity="1.000000" stroke="none" 
	d="
M543.930176,580.837646 
	C541.346924,585.245728 538.946289,589.335571 536.410095,593.656433 
	C541.403870,596.086426 544.587219,593.549316 548.013306,591.580200 
	C549.748291,590.583069 551.838562,587.179138 553.692505,590.166870 
	C555.298462,592.755005 552.109192,594.497864 550.076843,595.790955 
	C547.268494,597.577698 544.208374,598.962952 540.843872,599.346863 
	C537.506104,599.727722 535.947754,601.689941 535.310547,604.812805 
	C534.548584,608.546692 533.931519,612.360352 532.647278,615.921448 
	C531.647034,618.695007 529.750305,621.870422 526.173950,620.847290 
	C522.841553,619.893921 523.276245,616.465149 523.449768,613.615784 
	C523.645203,610.406372 524.748596,607.439880 525.966858,604.523438 
	C532.525757,588.822327 539.100464,573.127747 545.719299,557.451843 
	C546.601990,555.361267 547.391968,552.576538 550.464783,553.402710 
	C553.550476,554.232361 553.518188,557.099182 553.190002,559.614685 
	C552.170044,567.432312 547.694885,573.790222 543.930176,580.837646 
z"/>
</svg>